name rise37.2698peak67.6939fall79.5734.mot
datacolumns 19
datarows 36
range 8.28997000000000 8.34830500000000
endheader
time	ground_force1_vx	ground_force1_vy	ground_force1_vz	ground_force1_px	ground_force1_py	ground_force1_pz	ground_force2_vx	ground_force2_vy	ground_force2_vz	ground_force2_px	ground_force2_py	ground_force2_pz	ground_torque1_x	ground_torque1_y	ground_torque1_z	ground_torque2_x	ground_torque2_y	ground_torque2_z	
8.28997000000000	73.78467700000000	767.81590000000006	51.44713600000000	0.32490200000000	0.00000000000000	0.09004500000000	0.00000000000000	0.00000000000000	0.00000000000000	0.00000000000000	0.00000000000000	0.00000000000000	0.00000000000000	19.80185100000000	0.00000000000000	0.00000000000000	0.00000000000000	0.00000000000000	
8.29163400000000	72.98424100000000	769.51193400000000	51.44991000000000	0.32388500000000	0.00000000000000	0.09004400000000	0.00000000000000	0.00000000000000	0.00000000000000	0.00000000000000	0.00000000000000	0.00000000000000	0.00000000000000	19.79995400000000	0.00000000000000	0.00000000000000	0.00000000000000	0.00000000000000	
8.29330200000000	72.18053000000000	771.11164199999996	51.45667700000000	0.32288600000000	0.00000000000000	0.09004500000000	0.00000000000000	0.00000000000000	0.00000000000000	0.00000000000000	0.00000000000000	0.00000000000000	0.00000000000000	19.80341300000000	0.00000000000000	0.00000000000000	0.00000000000000	0.00000000000000	
8.29496700000000	71.37396500000000	772.61446300000000	51.46742200000000	0.32190200000000	0.00000000000000	0.09004600000000	0.00000000000000	0.00000000000000	0.00000000000000	0.00000000000000	0.00000000000000	0.00000000000000	0.00000000000000	19.81213100000000	0.00000000000000	0.00000000000000	0.00000000000000	0.00000000000000	
8.29663600000000	70.56490800000000	774.01987199999996	51.48205000000000	0.32093400000000	0.00000000000000	0.09004900000000	0.00000000000000	0.00000000000000	0.00000000000000	0.00000000000000	0.00000000000000	0.00000000000000	0.00000000000000	19.82595600000000	0.00000000000000	0.00000000000000	0.00000000000000	0.00000000000000	
8.29830000000000	69.75366500000000	775.32739400000003	51.50039000000000	0.31997800000000	0.00000000000000	0.09005200000000	0.00000000000000	0.00000000000000	0.00000000000000	0.00000000000000	0.00000000000000	0.00000000000000	0.00000000000000	19.84468900000000	0.00000000000000	0.00000000000000	0.00000000000000	0.00000000000000	
8.29999500000000	68.94049600000000	776.53661199999999	51.52220400000000	0.31903500000000	0.00000000000000	0.09005700000000	0.00000000000000	0.00000000000000	0.00000000000000	0.00000000000000	0.00000000000000	0.00000000000000	0.00000000000000	19.86808500000000	0.00000000000000	0.00000000000000	0.00000000000000	0.00000000000000	
8.30164000000000	68.12561300000000	777.64718400000004	51.54718600000000	0.31810100000000	0.00000000000000	0.09006300000000	0.00000000000000	0.00000000000000	0.00000000000000	0.00000000000000	0.00000000000000	0.00000000000000	0.00000000000000	19.89585600000000	0.00000000000000	0.00000000000000	0.00000000000000	0.00000000000000	
8.30330700000000	67.30919000000000	778.65884600000004	51.57497100000000	0.31717600000000	0.00000000000000	0.09007000000000	0.00000000000000	0.00000000000000	0.00000000000000	0.00000000000000	0.00000000000000	0.00000000000000	0.00000000000000	19.92767400000000	0.00000000000000	0.00000000000000	0.00000000000000	0.00000000000000	
8.30496700000000	66.49136400000000	779.57142899999997	51.60514000000000	0.31625700000000	0.00000000000000	0.09007800000000	0.00000000000000	0.00000000000000	0.00000000000000	0.00000000000000	0.00000000000000	0.00000000000000	0.00000000000000	19.96318000000000	0.00000000000000	0.00000000000000	0.00000000000000	0.00000000000000	
8.30663900000000	65.67223900000000	780.38486100000000	51.63722600000000	0.31534400000000	0.00000000000000	0.09008700000000	0.00000000000000	0.00000000000000	0.00000000000000	0.00000000000000	0.00000000000000	0.00000000000000	0.00000000000000	20.00197900000000	0.00000000000000	0.00000000000000	0.00000000000000	0.00000000000000	
8.30830300000000	64.85189600000000	781.09918300000004	51.67071900000000	0.31443300000000	0.00000000000000	0.09009800000000	0.00000000000000	0.00000000000000	0.00000000000000	0.00000000000000	0.00000000000000	0.00000000000000	0.00000000000000	20.04365100000000	0.00000000000000	0.00000000000000	0.00000000000000	0.00000000000000	
8.30997000000000	64.03039300000000	781.71455200000003	51.70507200000000	0.31352300000000	0.00000000000000	0.09011000000000	0.00000000000000	0.00000000000000	0.00000000000000	0.00000000000000	0.00000000000000	0.00000000000000	0.00000000000000	20.08775200000000	0.00000000000000	0.00000000000000	0.00000000000000	0.00000000000000	
8.31163300000000	63.20777000000000	782.23124800000005	51.73970900000000	0.31261300000000	0.00000000000000	0.09012400000000	0.00000000000000	0.00000000000000	0.00000000000000	0.00000000000000	0.00000000000000	0.00000000000000	0.00000000000000	20.13381900000000	0.00000000000000	0.00000000000000	0.00000000000000	0.00000000000000	
8.31330600000000	62.38405800000000	782.64968299999998	51.77402900000000	0.31170100000000	0.00000000000000	0.09013900000000	0.00000000000000	0.00000000000000	0.00000000000000	0.00000000000000	0.00000000000000	0.00000000000000	0.00000000000000	20.18137300000000	0.00000000000000	0.00000000000000	0.00000000000000	0.00000000000000	
8.31497000000000	61.55927700000000	782.97040200000004	51.80741300000000	0.31078500000000	0.00000000000000	0.09015500000000	0.00000000000000	0.00000000000000	0.00000000000000	0.00000000000000	0.00000000000000	0.00000000000000	0.00000000000000	20.22992200000000	0.00000000000000	0.00000000000000	0.00000000000000	0.00000000000000	
8.31663300000000	60.73344800000000	783.19409299999995	51.83922900000000	0.30986200000000	0.00000000000000	0.09017300000000	0.00000000000000	0.00000000000000	0.00000000000000	0.00000000000000	0.00000000000000	0.00000000000000	0.00000000000000	20.27896800000000	0.00000000000000	0.00000000000000	0.00000000000000	0.00000000000000	
8.31830100000000	59.90658800000000	783.32158600000002	51.86883900000000	0.30893200000000	0.00000000000000	0.09019200000000	0.00000000000000	0.00000000000000	0.00000000000000	0.00000000000000	0.00000000000000	0.00000000000000	0.00000000000000	20.32800900000000	0.00000000000000	0.00000000000000	0.00000000000000	0.00000000000000	
8.31997400000000	59.07872400000000	783.35385599999995	51.89560700000000	0.30799400000000	0.00000000000000	0.09021300000000	0.00000000000000	0.00000000000000	0.00000000000000	0.00000000000000	0.00000000000000	0.00000000000000	0.00000000000000	20.37654400000000	0.00000000000000	0.00000000000000	0.00000000000000	0.00000000000000	
8.32164000000000	58.24989000000000	783.29202799999996	51.91889800000000	0.30704400000000	0.00000000000000	0.09023500000000	0.00000000000000	0.00000000000000	0.00000000000000	0.00000000000000	0.00000000000000	0.00000000000000	0.00000000000000	20.42407200000000	0.00000000000000	0.00000000000000	0.00000000000000	0.00000000000000	
8.32330400000000	57.42013100000000	783.13737500000002	51.93809000000000	0.30608200000000	0.00000000000000	0.09025900000000	0.00000000000000	0.00000000000000	0.00000000000000	0.00000000000000	0.00000000000000	0.00000000000000	0.00000000000000	20.47010400000000	0.00000000000000	0.00000000000000	0.00000000000000	0.00000000000000	
8.32497200000000	56.58951200000000	782.89131899999995	51.95257600000000	0.30510700000000	0.00000000000000	0.09028400000000	0.00000000000000	0.00000000000000	0.00000000000000	0.00000000000000	0.00000000000000	0.00000000000000	0.00000000000000	20.51415800000000	0.00000000000000	0.00000000000000	0.00000000000000	0.00000000000000	
8.32663300000000	55.75811200000000	782.55543100000000	51.96177000000000	0.30411600000000	0.00000000000000	0.09031000000000	0.00000000000000	0.00000000000000	0.00000000000000	0.00000000000000	0.00000000000000	0.00000000000000	0.00000000000000	20.55576800000000	0.00000000000000	0.00000000000000	0.00000000000000	0.00000000000000	
8.32830800000000	54.92603600000000	782.13142700000003	51.96510900000000	0.30311000000000	0.00000000000000	0.09033800000000	0.00000000000000	0.00000000000000	0.00000000000000	0.00000000000000	0.00000000000000	0.00000000000000	0.00000000000000	20.59448500000000	0.00000000000000	0.00000000000000	0.00000000000000	0.00000000000000	
8.32997400000000	54.09340900000000	781.62117000000001	51.96206100000000	0.30208600000000	0.00000000000000	0.09036700000000	0.00000000000000	0.00000000000000	0.00000000000000	0.00000000000000	0.00000000000000	0.00000000000000	0.00000000000000	20.62988000000000	0.00000000000000	0.00000000000000	0.00000000000000	0.00000000000000	
8.33163900000000	53.26038400000000	781.02666299999999	51.95212500000000	0.30104500000000	0.00000000000000	0.09039700000000	0.00000000000000	0.00000000000000	0.00000000000000	0.00000000000000	0.00000000000000	0.00000000000000	0.00000000000000	20.66154500000000	0.00000000000000	0.00000000000000	0.00000000000000	0.00000000000000	
8.33330800000000	52.42714100000000	780.35004800000002	51.93483600000000	0.29998400000000	0.00000000000000	0.09042900000000	0.00000000000000	0.00000000000000	0.00000000000000	0.00000000000000	0.00000000000000	0.00000000000000	0.00000000000000	20.68910000000000	0.00000000000000	0.00000000000000	0.00000000000000	0.00000000000000	
8.33497000000000	51.59388900000000	779.59359800000004	51.90977100000000	0.29890400000000	0.00000000000000	0.09046200000000	0.00000000000000	0.00000000000000	0.00000000000000	0.00000000000000	0.00000000000000	0.00000000000000	0.00000000000000	20.71218800000000	0.00000000000000	0.00000000000000	0.00000000000000	0.00000000000000	
8.33663900000000	50.76086800000000	778.75971700000002	51.87654500000000	0.29780400000000	0.00000000000000	0.09049700000000	0.00000000000000	0.00000000000000	0.00000000000000	0.00000000000000	0.00000000000000	0.00000000000000	0.00000000000000	20.73048500000000	0.00000000000000	0.00000000000000	0.00000000000000	0.00000000000000	
8.33830800000000	49.92834500000000	777.85093099999995	51.83482100000000	0.29668300000000	0.00000000000000	0.09053200000000	0.00000000000000	0.00000000000000	0.00000000000000	0.00000000000000	0.00000000000000	0.00000000000000	0.00000000000000	20.74369500000000	0.00000000000000	0.00000000000000	0.00000000000000	0.00000000000000	
8.33997300000000	49.09662200000000	776.86988499999995	51.78430300000000	0.29554100000000	0.00000000000000	0.09056900000000	0.00000000000000	0.00000000000000	0.00000000000000	0.00000000000000	0.00000000000000	0.00000000000000	0.00000000000000	20.75155600000000	0.00000000000000	0.00000000000000	0.00000000000000	0.00000000000000	
8.34164100000000	48.26603000000000	775.81933200000003	51.72474700000000	0.29437800000000	0.00000000000000	0.09060600000000	0.00000000000000	0.00000000000000	0.00000000000000	0.00000000000000	0.00000000000000	0.00000000000000	0.00000000000000	20.75383700000000	0.00000000000000	0.00000000000000	0.00000000000000	0.00000000000000	
8.34330600000000	47.43692800000000	774.70213000000001	51.65595400000000	0.29319400000000	0.00000000000000	0.09064500000000	0.00000000000000	0.00000000000000	0.00000000000000	0.00000000000000	0.00000000000000	0.00000000000000	0.00000000000000	20.75034200000000	0.00000000000000	0.00000000000000	0.00000000000000	0.00000000000000	
8.34497300000000	46.60970900000000	773.52123400000005	51.57777500000000	0.29199000000000	0.00000000000000	0.09068500000000	0.00000000000000	0.00000000000000	0.00000000000000	0.00000000000000	0.00000000000000	0.00000000000000	0.00000000000000	20.74090800000000	0.00000000000000	0.00000000000000	0.00000000000000	0.00000000000000	
8.34663900000000	45.78479100000000	772.27968899999996	51.49011000000000	0.29076400000000	0.00000000000000	0.09072500000000	0.00000000000000	0.00000000000000	0.00000000000000	0.00000000000000	0.00000000000000	0.00000000000000	0.00000000000000	20.72540700000000	0.00000000000000	0.00000000000000	0.00000000000000	0.00000000000000	
8.34830500000000	44.96262100000000	770.98061900000005	51.39290800000000	0.28951900000000	0.00000000000000	0.09076700000000	0.00000000000000	0.00000000000000	0.00000000000000	0.00000000000000	0.00000000000000	0.00000000000000	0.00000000000000	20.70374500000000	0.00000000000000	0.00000000000000	0.00000000000000	0.00000000000000	
